# xmcd
#
# Track frame offsets: 
#        182
#        12500
#        24350
#        38355
#        52452
#        65725
#        78492
#        91345
#        103420
#        118805
#        132047
#        146727
#        161995
#        177147
#        188357
#        202167
#        215060
#        227970
#        241777
#        254887
#        267842
#        279260
#        290700
#
# Disc length: 4051 seconds
#
# Revision: 3
# Processed by: cddbd v1.5.2PL0 Copyright (c) Steve Scherf et al.
# Submitted via: ExactAudioCopy v1.0b1
#
DISCID=650fd117
DTITLE=Waters, Muddy - Rollin' Stone - Volume 2
DYEAR=1889
DGENRE=Blues
TTITLE0=I Can't Be Satisfied - 1948
TTITLE1=Kind Hearted Woman - 1948
TTITLE2=Screamin' And Cryin' - 1949
TTITLE3=Rollin' Stone - 1950
TTITLE4=Walking Blues - 1950
TTITLE5=Appealing Blues (Hello Little Girl) - 1950
TTITLE6=Lousiana - 1950
TTITLE7=Long Distance Call - 1951
TTITLE8=Honey Bee - 1951
TTITLE9=She Moves Me - 1951
TTITLE10=Still A Fool - 1951
TTITLE11=They Call Me Muddy Waters - 1951
TTITLE12=Standing Around Crying - 1952
TTITLE13=She's All Right - 1952
TTITLE14=I Want You To Love Me - 1953
TTITLE15=I'm Your Hoochie Coochie Man - 1954
TTITLE16=I Just Want To Make Love To You - 1954
TTITLE17=I'm Ready - 1954
TTITLE18=Mannish Boy - 1955
TTITLE19=Forty Days And Forty Nights - 1956
TTITLE20=Crawlin' Kingsnake - 1959
TTITLE21=Just A Dream - 1959
TTITLE22=I Feel So Good - 1959
EXTD=
EXTT0=
EXTT1=
EXTT2=
EXTT3=
EXTT4=
EXTT5=
EXTT6=
EXTT7=
EXTT8=
EXTT9=
EXTT10=
EXTT11=
EXTT12=
EXTT13=
EXTT14=
EXTT15=
EXTT16=
EXTT17=
EXTT18=
EXTT19=
EXTT20=
EXTT21=
EXTT22=
PLAYORDER=
